<svg xmlns="http://www.w3.org/2000/svg" viewBox="0 0 1450 611" role="img" aria-label="PhiReX annotated sequence intervals">
<rect width="1450" height="611" fill="white"/>
<style>text{font-family:Arial,sans-serif;fill:#202020} .muted{fill:#595959}</style>
<text x="28" y="32" font-size="24">AISB26-045-001 | PhiReX | 12,584 bp</text>
<text x="28" y="57" font-size="15">Coordinate-derived map. CDS: frame-consistent; region: coding boundaries unresolved. DNA unchanged.</text>
<text x="28" y="100" font-size="17">YPRC3L</text>
<text x="236" y="100" font-size="14" class="muted">1–598 | misc_feature</text>
<line x1="470" x2="1370" y1="95" y2="95" stroke="#e0e3e5"/>
<rect x="470.000" y="85" width="42.769" height="20" fill="#edf0f2" stroke="#7a8288"/>
<text x="28" y="134" font-size="17">TDH3p</text>
<text x="236" y="134" font-size="14" class="muted">599–1598 | promoter</text>
<line x1="470" x2="1370" y1="129" y2="129" stroke="#e0e3e5"/>
<rect x="512.769" y="119" width="71.519" height="20" fill="#edf0f2" stroke="#7a8288"/>
<text x="28" y="168" font-size="17">HY1</text>
<text x="236" y="168" font-size="14" class="muted">1599–2333 | misc_feature</text>
<line x1="470" x2="1370" y1="163" y2="163" stroke="#e0e3e5"/>
<rect x="584.288" y="153" width="52.567" height="20" fill="#edf0f2" stroke="#7a8288" stroke-dasharray="5 3"/>
<text x="28" y="202" font-size="17">PcyA</text>
<text x="236" y="202" font-size="14" class="muted">2334–3092 | misc_feature</text>
<line x1="470" x2="1370" y1="197" y2="197" stroke="#e0e3e5"/>
<rect x="636.855" y="187" width="54.283" height="20" fill="#edf0f2" stroke="#7a8288" stroke-dasharray="5 3"/>
<text x="28" y="236" font-size="17">TEF1t</text>
<text x="236" y="236" font-size="14" class="muted">3093–3492 | terminator</text>
<line x1="470" x2="1370" y1="231" y2="231" stroke="#e0e3e5"/>
<rect x="691.138" y="221" width="28.608" height="20" fill="#edf0f2" stroke="#7a8288"/>
<text x="28" y="270" font-size="17">TEF2p</text>
<text x="236" y="270" font-size="14" class="muted">3493–4492 | promoter</text>
<line x1="470" x2="1370" y1="265" y2="265" stroke="#e0e3e5"/>
<rect x="719.746" y="255" width="71.519" height="20" fill="#edf0f2" stroke="#7a8288"/>
<text x="28" y="304" font-size="17">PIF3-NLS-VP16</text>
<text x="236" y="304" font-size="14" class="muted">4493–6328 | CDS</text>
<line x1="470" x2="1370" y1="299" y2="299" stroke="#e0e3e5"/>
<rect x="791.265" y="289" width="131.310" height="20" fill="#596877" stroke="#3b4752"/>
<text x="28" y="338" font-size="17">PhyBNT-Zif268</text>
<text x="236" y="338" font-size="14" class="muted">6329–8467 | CDS</text>
<line x1="470" x2="1370" y1="333" y2="333" stroke="#e0e3e5"/>
<rect x="922.575" y="323" width="152.980" height="20" fill="#596877" stroke="#3b4752"/>
<text x="28" y="372" font-size="17">tENO2</text>
<text x="236" y="372" font-size="14" class="muted">8468–8692 | terminator</text>
<line x1="470" x2="1370" y1="367" y2="367" stroke="#e0e3e5"/>
<rect x="1075.555" y="357" width="16.092" height="20" fill="#edf0f2" stroke="#7a8288"/>
<text x="28" y="406" font-size="17">GalZifBSp</text>
<text x="236" y="406" font-size="14" class="muted">8693–9376 | promoter</text>
<line x1="470" x2="1370" y1="401" y2="401" stroke="#e0e3e5"/>
<rect x="1091.647" y="391" width="48.919" height="20" fill="#edf0f2" stroke="#7a8288"/>
<text x="28" y="440" font-size="17">EGFP</text>
<text x="236" y="440" font-size="14" class="muted">9377–10089 | misc_feature</text>
<line x1="470" x2="1370" y1="435" y2="435" stroke="#e0e3e5"/>
<rect x="1140.566" y="425" width="50.993" height="20" fill="#edf0f2" stroke="#7a8288" stroke-dasharray="5 3"/>
<text x="28" y="474" font-size="17">FBA1t</text>
<text x="236" y="474" font-size="14" class="muted">10090–10589 | terminator</text>
<line x1="470" x2="1370" y1="469" y2="469" stroke="#e0e3e5"/>
<rect x="1191.559" y="459" width="35.760" height="20" fill="#edf0f2" stroke="#7a8288"/>
<text x="28" y="508" font-size="17">KanMX</text>
<text x="236" y="508" font-size="14" class="muted">10590–11945 | misc_feature</text>
<line x1="470" x2="1370" y1="503" y2="503" stroke="#e0e3e5"/>
<rect x="1227.319" y="493" width="96.980" height="20" fill="#edf0f2" stroke="#7a8288" stroke-dasharray="5 3"/>
<text x="28" y="542" font-size="17">YPRC3R</text>
<text x="236" y="542" font-size="14" class="muted">11947–12584 | misc_feature</text>
<line x1="470" x2="1370" y1="537" y2="537" stroke="#e0e3e5"/>
<rect x="1324.371" y="527" width="45.629" height="20" fill="#edf0f2" stroke="#7a8288"/>
<text x="470.000" y="567" text-anchor="middle" font-size="13">0</text>
<text x="613.039" y="567" text-anchor="middle" font-size="13">2000</text>
<text x="756.078" y="567" text-anchor="middle" font-size="13">4000</text>
<text x="899.116" y="567" text-anchor="middle" font-size="13">6000</text>
<text x="1042.155" y="567" text-anchor="middle" font-size="13">8000</text>
<text x="1185.194" y="567" text-anchor="middle" font-size="13">10000</text>
<text x="1370.000" y="567" text-anchor="middle" font-size="13">12584</text>
</svg>
